<?xml version="1.0" standalone="no"?>
<!DOCTYPE svg PUBLIC "-//W3C//DTD SVG 20010904//EN"
 "http://www.w3.org/TR/2001/REC-SVG-20010904/DTD/svg10.dtd">
<svg version="1.0" xmlns="http://www.w3.org/2000/svg"
 width="400.000000pt" height="400.000000pt" viewBox="0 0 400.000000 400.000000"
 preserveAspectRatio="xMidYMid meet">
<metadata>
Created by potrace 1.11, written by Peter Selinger 2001-2013
</metadata>
<g transform="translate(0.000000,400.000000) scale(0.100000,-0.100000)"
fill="#000000" stroke="none">
<path d="M1883 3623 c-18 -2 -33 -8 -33 -13 0 -14 -41 -34 -75 -37 -55 -5
-145 -27 -145 -35 0 -4 5 -8 10 -8 6 0 10 -7 10 -15 0 -8 9 -19 20 -25 21 -11
27 -30 9 -30 -5 0 -31 9 -56 21 -46 21 -85 21 -148 0 -28 -9 -73 -17 -135 -25
-43 -5 -80 -18 -80 -28 0 -6 13 -7 33 -3 17 4 34 7 37 7 34 1 51 -5 60 -22 9
-16 6 -22 -17 -34 -16 -8 -40 -26 -55 -41 l-28 -26 27 -40 c39 -59 36 -132 -8
-195 -33 -48 -34 -57 -45 -214 -5 -71 -3 -113 9 -160 8 -36 18 -80 22 -97 4
-19 13 -33 21 -33 8 0 15 -10 16 -22 0 -13 2 -27 3 -33 1 -5 5 -45 9 -87 5
-43 12 -78 16 -78 8 0 8 8 -11 150 -12 99 -12 84 -4 182 4 55 14 91 35 132 15
31 31 75 35 99 8 52 32 137 44 156 7 11 15 9 43 -12 24 -19 38 -23 45 -16 8 8
16 8 29 0 62 -35 219 -60 314 -48 36 4 81 9 100 11 19 2 75 18 124 36 96 34
152 39 277 21 11 -2 60 -108 64 -142 3 -19 7 -80 10 -137 5 -104 21 -163 59
-215 16 -22 20 -41 18 -95 -2 -61 -9 -149 -17 -212 -1 -14 -6 -54 -9 -90 -7
-60 -24 -182 -30 -205 -8 -27 -37 -85 -44 -85 -5 0 -23 28 -42 63 -18 34 -54
94 -79 132 -26 39 -58 90 -73 115 -30 53 -88 120 -88 104 0 -6 7 -17 15 -24
15 -12 75 -97 75 -105 0 -2 29 -48 65 -102 36 -54 65 -104 65 -111 0 -7 7 -20
15 -28 25 -25 19 -63 -12 -76 -16 -7 -46 -24 -68 -37 -22 -14 -42 -26 -45 -26
-15 -1 -68 -40 -64 -46 2 -5 26 5 52 21 26 16 67 39 92 50 135 63 148 74 156
125 3 22 8 44 12 49 5 9 10 71 11 139 1 32 4 37 24 37 34 0 85 55 92 98 16
100 28 162 41 207 9 33 11 51 4 53 -6 2 3 28 20 57 17 30 33 64 36 77 13 52
16 201 5 241 -6 23 -13 58 -17 77 -3 19 -16 67 -29 105 -13 39 -31 96 -41 128
-14 46 -26 66 -61 95 -24 20 -73 65 -109 98 -66 63 -138 99 -167 82 -9 -5 -19
-2 -27 7 -7 8 -17 15 -22 15 -6 0 -22 8 -36 19 -32 21 -128 58 -174 66 -18 3
-59 15 -91 25 -31 11 -58 19 -60 18 -1 0 -17 -3 -34 -5z m752 -1196 c13 -29 8
-57 -11 -57 -10 0 -14 -8 -12 -23 3 -27 -46 -92 -62 -82 -12 7 -4 79 13 118
13 30 34 36 44 11 5 -15 7 -14 16 1 5 10 5 20 1 24 -12 8 -16 31 -6 31 4 0 12
-10 17 -23z m-9 -168 c-3 -25 -15 -49 -27 -60 -23 -20 -54 -25 -63 -10 -9 14
4 41 19 41 8 0 16 9 20 19 3 11 13 22 21 25 8 3 12 10 9 16 -3 5 1 10 10 10
14 0 16 -7 11 -41z"/>
<path d="M2063 2828 c-18 -6 -33 -15 -33 -19 0 -5 12 -4 28 2 15 6 45 11 67
11 31 -1 35 1 20 8 -26 11 -42 10 -82 -2z"/>
<path d="M2170 2829 c0 -5 11 -9 25 -9 14 0 25 2 25 4 0 2 -11 6 -25 8 -14 3
-25 1 -25 -3z"/>
<path d="M2230 2822 c0 -5 14 -12 30 -14 17 -3 30 -1 30 4 0 4 -6 8 -14 8 -8
0 -21 3 -30 6 -9 3 -16 2 -16 -4z"/>
<path d="M2187 2643 c-4 -3 -37 -8 -73 -10 -36 -2 -77 -8 -90 -13 -30 -12 -48
-51 -28 -63 20 -11 104 -15 139 -5 81 20 212 10 249 -21 8 -7 17 -8 20 -3 9
15 -45 58 -115 91 -67 31 -90 37 -102 24z"/>
<path d="M1444 2629 c-39 -20 -54 -60 -45 -123 2 -19 15 6 16 31 0 35 49 50
91 28 16 -8 39 -15 52 -15 34 0 26 -15 -19 -35 -45 -21 -91 -70 -87 -93 6 -29
66 -53 122 -48 60 5 76 9 94 20 7 4 16 6 19 3 8 -9 -7 -27 -23 -27 -8 0 -14
-4 -14 -10 0 -5 -3 -9 -7 -9 -18 3 -33 -2 -33 -10 0 -19 78 14 94 40 28 47 13
116 -29 139 -27 15 -33 30 -11 30 24 0 28 32 6 52 -14 14 -38 20 -78 22 -31 2
-73 6 -92 9 -19 4 -44 2 -56 -4z m226 -129 c8 -4 17 -15 18 -25 2 -9 0 -15 -5
-12 -4 3 -25 8 -45 11 -21 3 -41 7 -46 8 -4 2 -29 -8 -55 -21 -26 -13 -50 -21
-54 -17 -7 7 55 66 66 64 3 -1 13 1 21 5 34 13 46 13 65 4 11 -6 27 -13 35
-17z m-112 -62 c0 -7 3 -22 7 -34 5 -16 2 -21 -12 -21 -10 0 -24 4 -30 10 -7
5 -13 6 -13 2 0 -4 -7 -2 -15 5 -14 11 -12 15 12 31 34 21 49 23 51 7z m132
-8 c0 -5 -9 -14 -20 -20 -22 -12 -27 -1 -8 18 14 14 28 16 28 2z"/>
<path d="M1687 2623 c-6 -12 30 -66 37 -55 3 5 -3 18 -14 29 -10 12 -16 24
-13 27 4 3 4 6 0 6 -3 0 -8 -3 -10 -7z"/>
<path d="M2140 2532 c-13 -5 -85 -55 -117 -82 -20 -17 -4 -39 60 -80 52 -34
65 -38 101 -33 56 7 77 16 114 48 34 29 42 62 16 72 -9 3 -26 15 -39 27 -13
12 -30 26 -38 33 -17 14 -76 23 -97 15z m40 -22 c0 -4 -10 -11 -22 -14 -13 -3
-38 -20 -57 -37 -30 -27 -32 -33 -18 -41 25 -14 21 -31 -5 -22 -36 11 -50 36
-31 57 9 9 21 17 27 17 6 0 20 10 30 23 18 21 76 34 76 17z m-7 -65 c-7 -42 9
-64 42 -60 29 3 33 -11 6 -20 -26 -8 -64 9 -95 41 -27 30 -22 48 19 64 32 14
34 12 28 -25z m128 -7 c7 -12 -25 -58 -41 -58 -3 0 -6 18 -5 39 0 33 3 38 19
35 11 -2 23 -9 27 -16z"/>
<path d="M1798 2442 c-20 -4 -29 -24 -34 -77 -2 -22 -13 -87 -24 -144 -21
-111 -19 -121 25 -120 17 0 16 2 -7 15 -24 12 -26 18 -18 39 5 14 7 25 5 25
-2 0 0 11 5 24 8 23 18 82 24 151 6 62 15 75 52 75 19 0 34 4 34 10 0 9 -23
10 -62 2z"/>
<path d="M1354 2288 c2 -29 5 -63 5 -75 1 -13 6 -23 12 -23 5 0 8 4 5 8 -3 4
-6 38 -8 75 -1 37 -6 67 -11 67 -4 0 -6 -24 -3 -52z"/>
<path d="M1622 2292 c-18 -15 -50 -42 -70 -61 l-37 -34 47 33 c42 29 108 90
97 90 -2 0 -19 -13 -37 -28z"/>
<path d="M1363 2173 c3 -5 8 -42 11 -83 15 -175 18 -196 27 -207 6 -6 43 -30
83 -53 72 -41 73 -43 83 -93 6 -32 9 -37 6 -14 -5 55 13 49 67 -23 58 -76 92
-102 150 -115 43 -10 132 -14 145 -7 5 3 21 7 36 9 29 3 64 23 165 94 36 26
61 50 55 53 -5 4 -16 -2 -23 -12 -7 -11 -17 -20 -23 -21 -5 0 -17 -7 -26 -15
-31 -26 -144 -84 -178 -91 -55 -12 -109 -8 -163 12 -41 14 -62 32 -109 88 -68
81 -104 116 -139 133 -103 50 -131 82 -135 156 -5 103 -18 196 -27 196 -5 0
-7 -3 -5 -7z"/>
<path d="M1939 2156 c23 -25 16 -41 -13 -30 -9 3 -26 0 -39 -8 -42 -27 -56
-28 -77 -6 -17 18 -20 19 -20 5 0 -9 10 -22 23 -29 28 -15 47 -19 47 -8 0 13
54 30 81 25 22 -4 27 -1 31 19 3 16 -2 30 -14 40 -29 25 -44 19 -19 -8z"/>
<path d="M1836 2027 c-5 -24 -12 -34 -16 -27 -5 8 -10 9 -14 2 -3 -6 -2 -13 4
-17 18 -11 11 -23 -10 -18 -11 3 -20 1 -20 -4 0 -12 -69 -45 -80 -38 -5 3 -11
1 -15 -5 -3 -5 1 -10 9 -10 19 0 83 -55 90 -78 3 -10 23 -25 43 -34 l38 -16
-37 -7 c-21 -4 -49 -4 -63 -1 -14 4 -25 2 -25 -4 0 -14 42 -23 79 -17 17 3 55
0 83 -7 53 -12 108 -3 108 17 0 5 -8 6 -17 2 -30 -13 -67 -13 -98 1 -22 10
-25 13 -10 14 10 0 45 18 77 41 33 22 74 45 93 50 19 6 35 13 35 18 0 4 -24
13 -52 20 -62 16 -108 38 -108 51 0 13 -47 13 -55 0 -8 -13 -45 -13 -45 -1 0
5 5 11 11 13 6 2 9 22 7 48 l-4 45 -8 -38z m103 -98 c20 -16 22 -22 11 -29
-32 -20 -79 -20 -126 -2 -68 27 -71 47 -7 39 27 -3 56 -1 64 4 21 13 31 11 58
-12z m-122 -51 c9 -7 43 -9 93 -5 44 3 80 1 80 -3 0 -4 -21 -23 -47 -42 -43
-30 -52 -33 -81 -24 -34 10 -84 52 -102 87 -10 17 -8 18 17 8 15 -5 33 -15 40
-21z"/>
<path d="M2486 1833 c-22 -114 -29 -360 -12 -398 5 -11 10 -33 12 -49 2 -16 9
-35 15 -42 23 -28 -16 -104 -91 -176 -39 -38 -74 -68 -79 -68 -5 0 -15 -7 -22
-16 -15 -18 -116 -77 -139 -81 -30 -6 -56 -5 -100 1 -80 11 -100 17 -100 32 0
8 44 58 98 113 53 54 102 105 107 112 25 35 65 119 56 119 -5 0 -13 -10 -17
-22 -12 -38 -78 -133 -112 -162 -39 -32 -120 -115 -137 -138 l-20 -28 -68 25
c-83 31 -119 49 -136 69 -7 8 -32 24 -56 36 -39 19 -87 60 -123 105 -27 32
-60 131 -65 193 -4 37 -2 60 4 57 5 -4 9 3 9 14 0 26 -16 26 -58 1 -18 -11
-38 -20 -46 -20 -7 0 -23 -9 -36 -20 -13 -11 -27 -20 -31 -20 -5 0 -51 -41
-103 -91 -91 -89 -96 -92 -192 -125 -54 -18 -100 -31 -103 -29 -12 13 -122
-64 -151 -106 -23 -31 -19 -52 13 -66 25 -12 52 -4 82 24 41 36 86 64 95 58
15 -9 12 -25 -4 -25 -7 0 -19 -6 -25 -14 -9 -11 0 -26 44 -71 30 -32 57 -66
60 -76 5 -16 14 -18 73 -13 37 3 64 3 60 -1 -8 -9 11 -65 23 -65 5 0 9 -7 9
-15 0 -23 32 -31 108 -25 87 6 99 4 106 -23 13 -46 37 -64 89 -66 11 -1 17 -9
17 -23 0 -13 11 -41 23 -63 24 -43 42 -48 119 -35 28 6 40 3 52 -12 9 -10 16
-25 16 -33 0 -16 8 -17 75 -16 146 3 246 8 251 14 3 3 12 3 20 0 8 -3 15 0 15
6 1 6 2 17 3 24 1 6 -2 20 -7 30 -11 25 -8 27 49 32 27 3 60 10 74 15 24 9 62
18 88 19 6 1 12 7 12 15 0 19 19 24 105 32 85 7 106 10 169 24 61 13 61 13 65
55 1 11 9 14 27 11 31 -6 68 27 59 53 -6 19 10 31 50 36 95 14 171 31 177 39
10 16 -2 58 -23 82 -18 20 -27 69 -11 62 4 -1 33 -16 64 -32 60 -31 90 -30 81
3 -9 34 -65 76 -167 125 -119 58 -195 105 -257 161 -42 37 -52 41 -103 42 -64
1 -65 2 -71 34 -2 13 -7 38 -10 54 -6 32 -6 159 -1 210 17 143 18 213 2 128z"/>
<path d="M1564 1623 c-3 -27 -11 -57 -17 -68 -19 -35 -16 -51 5 -24 13 17 22
47 24 83 6 68 -2 74 -12 9z"/>
<path d="M1780 1496 c0 -17 46 -101 67 -122 21 -21 32 -25 57 -20 41 8 145 60
181 92 15 13 36 24 46 24 19 0 32 13 23 23 -4 3 -31 -7 -61 -23 l-55 -29 -41
21 c-49 24 -52 24 -52 -2 -1 -25 -50 -80 -73 -80 -18 0 -36 23 -64 83 -14 31
-28 47 -28 33z m240 -67 c0 -10 -45 -37 -74 -45 -22 -5 -25 -3 -20 11 4 9 16
26 27 39 17 19 24 21 43 12 13 -6 24 -14 24 -17z"/>
</g>
</svg>
